<svg version="1" xmlns="http://www.w3.org/2000/svg" width="682.667" height="682.667" viewBox="0 0 512.000000 512.000000"><path d="M71.9 10.9c-7.6 2.4-14.2 8.5-16.9 15.8-1.1 3-2 6.2-2 7.2 0 1.7-1.3 1.9-16.2 2.3-13.6.3-17 .7-20.8 2.4-5.9 2.7-10.7 7.6-13.6 13.9l-2.4 5v189.3c0 209-.5 192.8 6.2 195.1 1.7.6 8.9 1.1 15.9 1.1H35v12.9c0 7 .5 14.2 1.1 16 2.3 6.5-5 6.1 124 6.1h117.1l7.2 4.5c13.7 8.5 29.4 14.7 47.4 18.7 13.2 3 45.1 3.2 58.5.5 61-12.4 107.1-58.8 119.3-120.2 2.5-12.5 2.5-41.4.1-54-3.4-17.5-11.5-38.5-19.9-52-13.9-22-36.4-42.8-59-54.5l-6.7-3.5-.3-80.5c-.3-79.3-.3-80.6-2.4-85-2.4-5.1-8.9-11.5-14.3-13.8-2.6-1.1-8.1-1.7-19.8-2l-16.3-.4-.6-3.7c-3.8-21.2-30.3-29.4-45.1-13.9-3.7 3.9-7.2 11.1-7.3 15.1V36l-17.7-.2-17.7-.3-.8-4.2c-2.7-16.2-21.4-25.9-36.3-18.9-8.8 4.1-15.4 12.8-15.5 20.3V36h-36v-2.8c-.1-3.9-3.6-11.1-7.3-15-9.4-9.8-24.8-10.8-35.6-2.3-4.2 3.3-8.5 10.8-9.5 16.3l-.7 3.8h-17.4c-16.3 0-17.5-.1-17.5-1.8 0-8.3-8.8-19.6-17.5-22.5-5.1-1.8-12.2-2.1-16.6-.8zm12.2 18.4c3.3 2.5 3.9 5.5 3.9 19.6V63H71V48.1c0-14.7 0-14.9 2.6-17.5 2.9-2.8 7.7-3.5 10.5-1.3zm89.4 1.2c2.4 2.3 2.5 2.8 2.5 17.5v15h-17.1l.3-15.1.3-15.1 2.8-2.4c3.7-3.1 8.1-3.1 11.2.1zm88.2-.1l2.8 2.4V62.5h-17V32.8l2.8-2.4c1.6-1.3 4.1-2.4 5.7-2.4 1.6 0 4.1 1.1 5.7 2.4zm88 0l2.8 2.4.3 15.1.3 15.1H336V48c0-14.7.1-15.2 2.5-17.5 3.1-3.2 7.5-3.2 11.2-.1zM406 167.6v42.6l-2.8-.6c-17.5-3.8-23.5-4.7-34.2-5.2-59.2-3-115.1 29.9-141.4 83.1-10 20.3-14.4 37.6-15.3 60.1-.7 17.1.6 29.7 4.3 43.8 2.5 9.6 6.9 21.8 10.4 28.5 1.1 2.2 2 4.3 2 4.6 0 .3-47.5.5-105.5.5H18V125h388v42.6zM353 267c0 10.5 1.4 14.3 6 15.8 4.1 1.5 8.6-.2 10.5-3.9 1-1.8 1.5-5.8 1.5-11.9 0-10.7-.7-10.4 14.6-6.5 32.1 8.2 57.4 31.6 68.3 63.2 2.3 6.8 5.1 21.6 5.1 26.9v3.4h-9.6c-12.5 0-16.3 2-16.4 8.7 0 7.3 3.3 9.3 15.5 9.3 4.7 0 8.5.3 8.5.8 0 .4-.9 3.9-1.9 7.7-7.4 26.7-27.5 50.2-52.5 61.5-7.3 3.3-20.9 7.5-27.3 8.3l-4.1.5-.4-10.5c-.3-10.1-.4-10.6-3.1-12.9-4.1-3.5-8.8-3.2-12.1.7-2.4 2.8-2.6 3.8-2.6 12.9v9.9l-3.7-.6c-9.2-1.3-20.6-4.9-29.8-9.4-23.5-11.4-40.5-30.8-49.2-55.9-4.7-13.6-4.9-13 5.3-13 11.7 0 15.3-2.1 15.4-9.2 0-2.8-.7-4.2-3.1-6.2-2.8-2.4-3.7-2.6-13.1-2.6h-10.1l.6-7.3c3.6-42.8 34.5-77.9 76.7-87.3 3-.6 6.7-1.2 8.3-1.3l2.7-.1v9zM247.9 451.5l7.1 8.5H53v-17h187.8l7.1 8.5z"/><path d="M70.7 161.4c-13.7 4.9-20.8 19.7-16.2 33.7 3.4 10.1 14.2 17.9 25 17.9 14.1 0 26.5-12.4 26.5-26.5 0-17.7-18.6-31-35.3-25.1zm12.6 17.7c2.5 1.1 4.7 4.7 4.7 7.4 0 2.9-2.4 6.4-5.1 7.5-8.7 3.6-15.9-6.8-9.3-13.4 2.9-2.8 5.9-3.3 9.7-1.5zM159.3 161.3c-6.1 2.3-11.8 7.2-14.8 12.8-2.5 4.5-3 6.5-3 12.4s.5 7.9 3 12.4c8.7 15.8 29.9 18.8 42.2 5.9 12.2-12.7 8.6-33.9-7.2-42-4.8-2.5-15.6-3.3-20.2-1.5zm14.1 19.2c7.9 7.3-2.8 19.2-11 12.1-2.1-1.8-2.8-3.2-2.8-6.1 0-7.4 8.4-11 13.8-6zM245.5 162.4c-17 7.9-21.3 29.5-8.4 42.5 16.7 16.8 45.2 5.3 45.2-18.4 0-14.6-11.8-26.5-26.3-26.5-3.7 0-7.2.8-10.5 2.4zm16 17.8c4.7 4.1 2.8 12.9-3 14.4-5.9 1.5-10.9-2.7-10.7-8.9.1-4 4.1-7.7 8.2-7.7 1.6 0 4.1 1 5.5 2.2zM73.8 231.5c-5.2 1-11.3 4.6-14.6 8.5-.7.8-2.4 3.7-3.7 6.5-7.2 14.7 2.3 33 18.9 36.5 12.3 2.5 23.8-3.7 29.4-15.9 4.5-9.8 1.8-21.7-6.6-29.3-5.2-4.7-6.7-5.4-12.8-6.5-3.3-.6-6.9-.6-10.6.2zm11.7 20c3.2 3.1 3.2 7.5.2 11-4.9 5.7-14.7 2-14.7-5.6 0-7 9.4-10.6 14.5-5.4zM156.4 233.4c-8.6 4-15.4 14.4-15.4 23.6 0 5.8 3.1 13.2 7.7 18.1 15.5 16.6 43.2 7.1 45-15.5 1-11.7-4.9-22.1-15-26.7-6.1-2.7-15.8-2.5-22.3.5zm17.1 18.1c3.3 3.2 3.4 8.4.3 11.2-6.7 6.2-16.6.2-13.8-8.3 1.3-4 3.3-5.3 7.8-5.4 2.2 0 4.1.8 5.7 2.5zM71.9 302.3c-8.9 3.3-14.6 8.9-17.4 16.8-6 17 6.9 34.9 25 34.9 14.7-.1 26.7-12.2 26.4-26.8-.2-13.4-10.8-24.5-24.5-25.7-3.7-.3-7.2 0-9.5.8zm13.9 20.3c6.9 7.8-4.9 18.4-12.3 10.9-2.9-2.8-3.2-7-.9-10.3 3.3-4.8 9.2-5 13.2-.6zM159.4 302.8c-8.9 3.1-14.4 8.9-17.1 18.1-4.8 16.6 7.8 33.1 25.2 33.1 14.9 0 26.5-11.6 26.5-26.5 0-11.4-7.6-21.8-18.4-25-6.4-1.9-9.9-1.8-16.2.3zm11.2 17.2c3.7 1.4 5.3 3.8 5.4 7.8 0 4.4-3.8 8.2-8.2 8.2-4.1-.1-6.5-1.8-7.9-5.8-1.3-3.8.4-8 4.1-9.9 3.1-1.5 3.2-1.6 6.6-.3zM410 311.7c-1.4 1-12.1 9.7-23.8 19.5C374.4 341 364.5 349 364 349c-.4 0-3.6-4.3-7-9.6-3.5-5.2-7.1-9.9-8.1-10.5-3.1-1.6-7.7-1-10.5 1.5-4.9 4.2-4 7.6 6 22.8 4.9 7.3 9.8 14.3 10.9 15.5 2.7 3 8 4 11 2 5.7-3.8 53.5-44.1 55.5-46.9 3-4.2 2.8-7.4-.7-10.9-3.4-3.3-7.4-3.8-11.1-1.2z"/></svg>